HIERARCHY
ROOT Hips
{
	OFFSET 0.000000 103.266502 0.000000
	CHANNELS 6 Xposition Yposition Zposition Xrotation Yrotation Zrotation 
	JOINT Spine
	{
		OFFSET -0.002400 12.777504 0.315300
		CHANNELS 3 Xrotation Yrotation Zrotation
		JOINT Spine1
		{
			OFFSET -0.002067 5.816869 0.032633
			CHANNELS 3 Xrotation Yrotation Zrotation
			JOINT Spine1_split
			{
				OFFSET -0.002067 5.816869 0.032633
				CHANNELS 3 Xrotation Yrotation Zrotation
				JOINT Spine2
				{
					OFFSET -0.002067 5.816869 0.032633
					CHANNELS 3 Xrotation Yrotation Zrotation
					JOINT Neck
					{
						OFFSET -0.003700 21.199493 -0.826900
						CHANNELS 3 Xrotation Yrotation Zrotation
						JOINT Head
						{
							OFFSET 0.000000 20.442200 4.834800
							CHANNELS 3 Xrotation Yrotation Zrotation
							JOINT HeadTop_End
							{
								OFFSET 0.000000 34.668396 4.968400
								CHANNELS 3 Xrotation Yrotation Zrotation
								End Site
								{
									OFFSET 0.000000 0.000000 0.000000
								}
							}
						}
					}
					JOINT LeftShoulder
					{
						OFFSET 3.288150 8.794197 -1.372250
						CHANNELS 3 Xrotation Yrotation Zrotation
						JOINT LeftShoulder_split
						{
							OFFSET 3.288150 8.794197 -1.372250
							CHANNELS 3 Xrotation Yrotation Zrotation
							JOINT LeftArm
							{
								OFFSET 11.953299 -2.279007 -0.146200
								CHANNELS 3 Xrotation Yrotation Zrotation
								JOINT LeftForeArm
								{
									OFFSET 18.448900 0.000000 0.000000
									CHANNELS 3 Xrotation Yrotation Zrotation
									JOINT LeftHand
									{
										OFFSET 29.527798 0.000000 0.000000
										CHANNELS 3 Xrotation Yrotation Zrotation
										JOINT LeftHandThumb1
										{
											OFFSET 10.739754 -2.369614 9.225399
											CHANNELS 3 Xrotation Yrotation Zrotation
											JOINT LeftHandThumb2
											{
												OFFSET 4.926170 -2.844131 2.844125
												CHANNELS 3 Xrotation Yrotation Zrotation
												JOINT LeftHandThumb3
												{
													OFFSET 4.614891 -2.664413 2.664409
													CHANNELS 3 Xrotation Yrotation Zrotation
													JOINT LeftHandThumb4
													{
														OFFSET 4.432465 -2.559082 2.559083
														CHANNELS 3 Xrotation Yrotation Zrotation
														End Site
														{
															OFFSET 0.000000 0.000000 0.000000
														}
													}
												}
											}
										}
										JOINT LeftHandIndex1
										{
											OFFSET 26.467674 0.187653 6.405298
											CHANNELS 3 Xrotation Yrotation Zrotation
											JOINT LeftHandIndex2
											{
												OFFSET 8.792900 0.000000 0.000000
												CHANNELS 3 Xrotation Yrotation Zrotation
												JOINT LeftHandIndex3
												{
													OFFSET 10.075203 0.000000 0.000000
													CHANNELS 3 Xrotation Yrotation Zrotation
													End Site
													{
														OFFSET 0.000000 0.000000 0.000000
													}
												}
											}
										}
										JOINT LeftHandMiddle1
										{
											OFFSET 25.764404 0.000000 0.000000
											CHANNELS 3 Xrotation Yrotation Zrotation
											JOINT LeftHandMiddle2
											{
												OFFSET 9.393974 0.000000 0.000000
												CHANNELS 3 Xrotation Yrotation Zrotation
												JOINT LeftHandMiddle3
												{
													OFFSET 10.771950 0.000000 0.000000
													CHANNELS 3 Xrotation Yrotation Zrotation
													End Site
													{
														OFFSET 0.000000 0.000000 0.000000
													}
												}
											}
										}
										JOINT LeftHandRing1
										{
											OFFSET 24.660927 0.144547 -6.225808
											CHANNELS 3 Xrotation Yrotation Zrotation
											JOINT LeftHandRing2
											{
												OFFSET 9.393799 0.000000 0.000000
												CHANNELS 3 Xrotation Yrotation Zrotation
												JOINT LeftHandRing3
												{
													OFFSET 9.928497 0.000000 0.000000
													CHANNELS 3 Xrotation Yrotation Zrotation
													End Site
													{
														OFFSET 0.000000 0.000000 0.000000
													}
												}
											}
										}
										JOINT LeftHandPinky1
										{
											OFFSET 23.655350 0.125290 -12.815412
											CHANNELS 3 Xrotation Yrotation Zrotation
											JOINT LeftHandPinky2
											{
												OFFSET 8.425102 0.000000 0.000000
												CHANNELS 3 Xrotation Yrotation Zrotation
												JOINT LeftHandPinky3
												{
													OFFSET 8.147003 0.000000 0.000000
													CHANNELS 3 Xrotation Yrotation Zrotation
													End Site
													{
														OFFSET 0.000000 0.000000 0.000000
													}
												}
											}
										}
									}
								}
							}
						}
					}
					JOINT RightShoulder
					{
						OFFSET -3.249400 8.794197 -1.372250
						CHANNELS 3 Xrotation Yrotation Zrotation
						JOINT RightShoulder_split
						{
							OFFSET -3.249400 8.794197 -1.372250
							CHANNELS 3 Xrotation Yrotation Zrotation
							JOINT RightArm
							{
								OFFSET -11.953299 -2.279007 -0.146200
								CHANNELS 3 Xrotation Yrotation Zrotation
								JOINT RightForeArm
								{
									OFFSET -18.448900 0.000000 0.000000
									CHANNELS 3 Xrotation Yrotation Zrotation
									JOINT RightHand
									{
										OFFSET -29.527802 0.000000 0.000000
										CHANNELS 3 Xrotation Yrotation Zrotation
										JOINT RightHandThumb1
										{
											OFFSET -10.739754 -2.369614 9.225399
											CHANNELS 3 Xrotation Yrotation Zrotation
											JOINT RightHandThumb2
											{
												OFFSET -4.926170 -2.844131 2.844125
												CHANNELS 3 Xrotation Yrotation Zrotation
												JOINT RightHandThumb3
												{
													OFFSET -4.614891 -2.664413 2.664409
													CHANNELS 3 Xrotation Yrotation Zrotation
													JOINT RightHandThumb4
													{
														OFFSET -4.432465 -2.559082 2.559083
														CHANNELS 3 Xrotation Yrotation Zrotation
														End Site
														{
															OFFSET 0.000000 0.000000 0.000000
														}
													}
												}
											}
										}
										JOINT RightHandIndex1
										{
											OFFSET -26.467674 0.187653 6.405298
											CHANNELS 3 Xrotation Yrotation Zrotation
											JOINT RightHandIndex2
											{
												OFFSET -8.792900 0.000000 0.000000
												CHANNELS 3 Xrotation Yrotation Zrotation
												JOINT RightHandIndex3
												{
													OFFSET -10.075203 0.000000 0.000000
													CHANNELS 3 Xrotation Yrotation Zrotation
													End Site
													{
														OFFSET 0.000000 0.000000 0.000000
													}
												}
											}
										}
										JOINT RightHandMiddle1
										{
											OFFSET -25.764404 0.000000 0.000000
											CHANNELS 3 Xrotation Yrotation Zrotation
											JOINT RightHandMiddle2
											{
												OFFSET -9.393974 0.000000 0.000000
												CHANNELS 3 Xrotation Yrotation Zrotation
												JOINT RightHandMiddle3
												{
													OFFSET -10.771950 0.000000 0.000000
													CHANNELS 3 Xrotation Yrotation Zrotation
													End Site
													{
														OFFSET 0.000000 0.000000 0.000000
													}
												}
											}
										}
										JOINT RightHandRing1
										{
											OFFSET -24.660927 0.144547 -6.225808
											CHANNELS 3 Xrotation Yrotation Zrotation
											JOINT RightHandRing2
											{
												OFFSET -9.393799 0.000000 0.000000
												CHANNELS 3 Xrotation Yrotation Zrotation
												JOINT RightHandRing3
												{
													OFFSET -9.928497 0.000000 0.000000
													CHANNELS 3 Xrotation Yrotation Zrotation
													End Site
													{
														OFFSET 0.000000 0.000000 0.000000
													}
												}
											}
										}
										JOINT RightHandPinky1
										{
											OFFSET -23.655350 0.125290 -12.815412
											CHANNELS 3 Xrotation Yrotation Zrotation
											JOINT RightHandPinky2
											{
												OFFSET -8.425102 0.000000 0.000000
												CHANNELS 3 Xrotation Yrotation Zrotation
												JOINT RightHandPinky3
												{
													OFFSET -8.147003 0.000000 0.000000
													CHANNELS 3 Xrotation Yrotation Zrotation
													End Site
													{
														OFFSET 0.000000 0.000000 0.000000
													}
												}
											}
										}
									}
								}
							}
						}
					}
				}
			}
		}
	}
	JOINT LeftUpLeg
	{
		OFFSET 11.394100 -6.187798 -0.413800
		CHANNELS 3 Xrotation Yrotation Zrotation
		JOINT LeftLeg
		{
			OFFSET 0.430247 -32.302673 3.732800
			CHANNELS 3 Xrotation Yrotation Zrotation
			JOINT LeftFoot
			{
				OFFSET -0.430247 -48.264931 -6.423300
				CHANNELS 3 Xrotation Yrotation Zrotation
				JOINT LeftToeBase
				{
					OFFSET 4.230900 -16.068199 23.438400
					CHANNELS 3 Xrotation Yrotation Zrotation
					JOINT LeftToe_End
					{
						OFFSET 4.510700 0.695400 19.974600
						CHANNELS 3 Xrotation Yrotation Zrotation
						End Site
						{
							OFFSET 0.000000 0.000000 0.000000
						}
					}
				}
			}
		}
	}
	JOINT RightUpLeg
	{
		OFFSET -11.333700 -6.187798 -0.413800
		CHANNELS 3 Xrotation Yrotation Zrotation
		JOINT RightLeg
		{
			OFFSET -0.430392 -32.302628 3.733000
			CHANNELS 3 Xrotation Yrotation Zrotation
			JOINT RightFoot
			{
				OFFSET 0.430392 -48.264973 -6.423500
				CHANNELS 3 Xrotation Yrotation Zrotation
				JOINT RightToeBase
				{
					OFFSET -4.230900 -16.068199 23.438400
					CHANNELS 3 Xrotation Yrotation Zrotation
					JOINT RightToe_End
					{
						OFFSET -4.510700 0.695400 19.974600
						CHANNELS 3 Xrotation Yrotation Zrotation
						End Site
						{
							OFFSET 0.000000 0.000000 0.000000
						}
					}
				}
			}
		}
	}
}
MOTION
Frames: 4
Frame Time: 0.016667
17.897932 93.458733 -23.396372 155.473793 -33.221197 160.871596 36.399953 3.035276 8.820848 -9.351837 -3.570431 1.181060 0.000000 0.000000 0.000000 -9.435590 -2.352111 2.017857 -12.226139 -7.455018 -5.693958 -19.356838 -12.917814 9.381451 -0.000000 0.000000 0.000000 5.744834 -10.522764 24.025841 0.000000 0.000000 0.000000 -67.510587 -3.722631 -45.267980 1.348455 -68.597653 4.202971 -49.957312 9.172172 6.229482 17.551619 -5.699220 -12.932302 10.850483 26.127770 8.644846 20.927005 51.115852 0.218734 -0.000001 -0.000000 -0.000002 13.980894 1.201507 -55.004367 0.370821 1.161735 -65.441900 0.000001 -0.000001 0.000001 7.504733 1.174457 -63.778490 1.807815 1.475694 -64.567971 -0.000001 -0.000001 0.000001 8.574349 2.179095 -75.148992 -0.207656 1.009271 -57.855063 0.000001 -0.000000 0.000000 10.030105 13.637054 -84.750251 0.877106 0.062282 -64.595483 0.000001 0.000001 -0.000002 8.424583 8.375897 -5.507278 0.000000 0.000000 0.000000 -1.238757 1.267727 68.329165 13.833008 26.209137 -4.662795 1.309580 4.198883 -0.028696 18.220800 -5.165872 -16.100668 -6.245492 -30.512501 3.865926 -4.832682 -8.294478 3.873373 0.000001 0.000000 -0.000001 8.324399 -2.978368 13.360771 -2.420665 -1.364216 30.156487 -0.000000 0.000000 -0.000002 -0.657860 -4.404965 22.423731 0.269044 -5.521318 37.097257 -0.000002 -0.000003 0.000002 -4.177280 -8.849783 22.910737 4.057600 -1.935994 44.316658 -0.000000 0.000001 -0.000001 -16.086318 -11.774064 19.303187 10.677811 -2.614208 41.806324 -0.000002 0.000001 0.000001 -25.496750 32.717839 26.932314 26.256828 23.134447 -0.555463 -8.492079 11.633497 -27.823259 -0.292629 -0.111913 -0.580094 0.000000 0.000001 -0.000000 -61.698909 17.744022 13.212572 35.227462 -0.841459 2.598319 0.694780 -5.776032 4.006982 -0.000201 0.062412 0.008406 -0.000000 0.000004 0.000000 
17.839020 93.580070 -23.470119 155.627472 -33.415218 161.056462 36.359723 3.063869 8.857762 -9.302413 -3.573409 1.240605 0.000000 0.000000 0.000000 -9.386072 -2.346656 2.077842 -12.663930 -9.245406 -5.425660 -18.143124 -14.473888 9.482521 0.000000 0.000000 0.000000 5.600721 -10.392679 23.545696 0.000000 0.000000 0.000000 -67.435031 -3.677387 -45.248149 1.632213 -68.445264 4.470464 -49.937122 9.068384 6.209539 17.551619 -5.699220 -12.932306 10.850483 26.127774 8.644846 20.927006 51.115852 0.218736 -0.000000 -0.000001 0.000002 13.980894 1.201506 -55.004360 0.370820 1.161736 -65.441900 -0.000001 -0.000003 0.000000 7.504732 1.174456 -63.778496 1.807816 1.475692 -64.567964 0.000000 0.000001 -0.000001 8.574347 2.179095 -75.148992 -0.207656 1.009270 -57.855063 0.000001 -0.000000 -0.000002 10.030102 13.637051 -84.750251 0.877107 0.062283 -64.595490 -0.000001 0.000001 -0.000002 8.387673 8.109942 -5.631584 0.000000 0.000000 0.000000 -1.325110 1.460308 68.468309 13.559636 26.271831 -4.380973 1.637694 4.236969 0.170618 18.207633 -5.153465 -16.107046 -6.281842 -30.420713 3.877067 -4.766640 -8.440358 3.821738 0.000000 -0.000002 -0.000002 8.217434 -2.911583 13.348505 -2.416349 -1.394009 30.239880 0.000001 0.000001 0.000000 -0.797128 -4.366875 22.488053 0.278306 -5.517104 37.121716 0.000002 -0.000000 0.000001 -4.248844 -8.728396 23.054469 4.015902 -2.019628 44.438901 0.000001 -0.000000 -0.000001 -16.404444 -11.839657 19.617953 10.678527 -2.615768 41.769776 -0.000003 0.000001 0.000002 -24.682769 32.775400 26.404810 25.526558 23.227762 -0.495398 -8.270755 11.625255 -27.755266 -0.292598 -0.109485 -0.581004 -0.000000 0.000001 -0.000000 -61.194691 17.650158 12.929215 35.054682 -0.797271 2.592796 0.640746 -5.668944 3.930389 -0.000198 0.062554 0.008454 -0.000000 0.000002 0.000000 
17.791208 93.689346 -23.523668 155.755798 -33.600969 161.252638 36.287484 3.083514 8.894752 -9.262702 -3.564025 1.268313 0.000000 0.000000 0.000000 -9.346576 -2.337916 2.102955 -12.950603 -10.349952 -5.301787 -17.398329 -15.412052 9.443623 0.000000 -0.000000 0.000000 5.455862 -10.276586 23.062287 0.000000 0.000000 0.000000 -67.354497 -3.637413 -45.228075 1.900061 -68.291674 4.724003 -49.919691 8.973187 6.196775 17.551619 -5.699220 -12.932305 10.850488 26.127774 8.644847 20.927003 51.115852 0.218730 -0.000001 -0.000001 -0.000001 13.980894 1.201507 -55.004360 0.370819 1.161735 -65.441900 0.000000 -0.000001 0.000000 7.504732 1.174456 -63.778490 1.807814 1.475693 -64.567971 0.000000 -0.000000 0.000001 8.574345 2.179096 -75.148986 -0.207656 1.009271 -57.855070 0.000000 -0.000001 0.000001 10.030103 13.637053 -84.750251 0.877107 0.062284 -64.595483 -0.000000 0.000000 -0.000002 8.353437 7.968182 -5.710316 0.000000 0.000000 0.000000 -1.302522 1.649689 68.639248 13.413269 26.330439 -4.243867 1.725156 4.280973 0.377623 18.194476 -5.141177 -16.113446 -6.316180 -30.331579 3.889167 -4.703215 -8.582005 3.771493 0.000000 0.000001 -0.000000 8.114769 -2.847545 13.337021 -2.411868 -1.422821 30.319886 -0.000003 0.000000 -0.000001 -0.930833 -4.330635 22.550030 0.287457 -5.512979 37.145157 0.000001 0.000002 -0.000003 -4.318075 -8.612282 23.192551 3.976693 -2.100075 44.556213 0.000005 0.000002 -0.000001 -16.709568 -11.906600 19.920014 10.679294 -2.617327 41.733159 -0.000003 -0.000002 0.000001 -23.922442 32.815480 25.865732 24.854507 23.315204 -0.439461 -8.067639 11.627829 -27.678411 -0.292633 -0.107041 -0.581947 0.000000 -0.000002 -0.000000 -60.744868 17.568464 12.585537 34.965183 -1.860197 2.502684 0.605446 -4.418049 3.980823 -0.000188 0.062673 0.008509 -0.000000 0.000000 -0.000000 
17.748302 93.791771 -23.568636 155.872813 -33.783598 161.455372 36.201143 3.098848 8.930285 -9.227465 -3.548996 1.281479 0.000000 0.000000 0.000000 -9.311680 -2.327713 2.112164 -13.170377 -11.140841 -5.245223 -16.873783 -16.069919 9.340677 0.000000 0.000000 -0.000000 5.312884 -10.162597 22.584265 0.000000 0.000000 0.000000 -67.274017 -3.603512 -45.213848 2.101641 -68.140447 4.908470 -49.904384 8.881472 6.194704 17.551621 -5.699220 -12.932303 10.850483 26.127774 8.644846 20.927000 51.115848 0.218730 -0.000000 0.000001 0.000002 13.980893 1.201507 -55.004367 0.370823 1.161735 -65.441900 -0.000001 0.000001 -0.000000 7.504731 1.174456 -63.778496 1.807816 1.475694 -64.567964 -0.000000 -0.000001 -0.000000 8.574348 2.179095 -75.148992 -0.207655 1.009272 -57.855063 0.000001 0.000001 -0.000000 10.030105 13.637054 -84.750251 0.877106 0.062282 -64.595483 0.000002 0.000000 -0.000002 8.320660 7.882606 -5.768245 0.000000 0.000000 0.000000 -1.231536 1.837844 68.823998 13.324730 26.387475 -4.172564 1.703400 4.326789 0.587460 18.181265 -5.128774 -16.119870 -6.348261 -30.245526 3.902244 -4.642601 -8.719070 3.722713 0.000000 -0.000003 -0.000001 8.016909 -2.786400 13.326242 -2.407378 -1.450637 30.396220 -0.000000 -0.000000 0.000001 -1.058382 -4.296369 22.609352 0.296487 -5.508850 37.167581 0.000001 -0.000000 -0.000000 -4.384642 -8.501905 23.324314 3.940077 -2.176944 44.668088 -0.000003 0.000003 -0.000003 -17.000378 -11.974043 20.208015 10.680041 -2.618838 41.696556 0.000002 -0.000001 0.000003 -23.185721 32.844836 25.321161 24.209182 23.399270 -0.385193 -7.873279 11.634659 -27.597583 -0.292619 -0.104536 -0.582861 -0.000000 0.000002 0.000000 -60.324477 17.465866 12.272404 34.832267 -1.661155 2.511643 0.567660 -4.430474 3.903493 -0.000188 0.062778 0.008537 0.000000 -0.000001 -0.000000 
